<?xml version="1.0" encoding="UTF-8"?>
<svg id="Warstwa_1" xmlns="http://www.w3.org/2000/svg" viewBox="0 0 927.33 927.33">
  <defs>
    <style>
      .cls-1, .cls-2, .cls-3, .cls-4 {
        fill: #fff;
      }

      .cls-5 {
        stroke-width: 16px;
      }

      .cls-5, .cls-6 {
        fill: none;
        stroke: #fff;
        stroke-miterlimit: 10;
      }

      .cls-2 {
        font-family: Poppins-SemiBold, Poppins;
        font-size: 40.93px;
        font-weight: 600;
      }

      .cls-3 {
        fill-rule: evenodd;
      }

      .cls-6 {
        stroke-width: 10px;
      }

      .cls-4 {
        font-family: Poppins-Bold, Poppins;
        font-size: 71.62px;
        font-weight: 700;
      }
    </style>
  </defs>
  <g>
    <circle class="cls-5" cx="463.66" cy="463.66" r="455.66"/>
    <text class="cls-4" transform="translate(146.76 349.17) rotate(-65.3)"><tspan x="0" y="0">O</tspan></text>
    <text class="cls-4" transform="translate(175.34 289.54) rotate(-54.17)"><tspan x="0" y="0">G</tspan></text>
    <text class="cls-4" transform="translate(214.24 237.82) rotate(-43.87)"><tspan x="0" y="0">R</tspan></text>
    <text class="cls-4" transform="translate(255.57 198.77) rotate(-33.42)"><tspan x="0" y="0">Ó</tspan></text>
    <text class="cls-4" transform="translate(311.45 163.27) rotate(-22.46)"><tspan x="0" y="0">D</tspan></text>
    <text class="cls-4" transform="translate(370.63 140.96) rotate(-14.75)"><tspan x="0" y="0"> </tspan></text>
    <text class="cls-4" transform="translate(396.53 134.01) rotate(-7.8)"><tspan x="0" y="0">Z</tspan></text>
    <text class="cls-4" transform="translate(449.2 127.29) rotate(2)"><tspan x="0" y="0">A</tspan></text>
    <text class="cls-4" transform="translate(513.04 131.51) rotate(9.68)"><tspan x="0" y="0"> </tspan></text>
    <text class="cls-4" transform="translate(539.2 135.38) rotate(17.59)"><tspan x="0" y="0">G</tspan></text>
    <text class="cls-4" transform="translate(600.46 156.15) rotate(28.01)"><tspan x="0" y="0">R</tspan></text>
    <text class="cls-4" transform="translate(650.39 183.27) rotate(38.49)"><tspan x="0" y="0">O</tspan></text>
    <text class="cls-4" transform="translate(701.49 225.77) rotate(48.72)"><tspan x="0" y="0">S</tspan></text>
    <text class="cls-4" transform="translate(736.89 267.46) rotate(57.9)"><tspan x="0" y="0">Z</tspan></text>
    <text class="cls-4" transform="translate(764.46 313.26) rotate(66.71)"><tspan x="0" y="0">E</tspan></text>
    <circle class="cls-6" cx="463.66" cy="463.66" r="265.95"/>
    <text class="cls-2" transform="translate(125.61 630.21) rotate(61.71)"><tspan x="0" y="0">S</tspan></text>
    <text class="cls-2" transform="translate(142.42 660.45) rotate(56.53)"><tspan x="0" y="0">Z</tspan></text>
    <text class="cls-2" transform="translate(161.06 687.98) rotate(51.2)"><tspan x="0" y="0">K</tspan></text>
    <text class="cls-2" transform="translate(184.55 716.57) rotate(45.2)"><tspan x="0" y="0">Ó</tspan></text>
    <text class="cls-2" transform="translate(214.55 745.7) rotate(39.85)"><tspan x="0" y="0">Ł</tspan></text>
    <text class="cls-2" transform="translate(236.6 763.79) rotate(34.89)"><tspan x="0" y="0">K</tspan></text>
    <text class="cls-2" transform="translate(267.15 784.56) rotate(29.08)"><tspan x="0" y="0">A</tspan></text>
    <text class="cls-2" transform="translate(301.37 802.74) rotate(24.64)"><tspan x="0" y="0"> </tspan></text>
    <text class="cls-2" transform="translate(318.84 810.77) rotate(20.18)"><tspan x="0" y="0">D</tspan></text>
    <text class="cls-2" transform="translate(355.76 823.73) rotate(14.4)"><tspan x="0" y="0">R</tspan></text>
    <text class="cls-2" transform="translate(390.66 832.16) rotate(9.09)"><tspan x="0" y="0">Z</tspan></text>
    <text class="cls-2" transform="translate(423.47 836.95) rotate(4.18)"><tspan x="0" y="0">E</tspan></text>
    <text class="cls-2" transform="translate(455.11 839.27) rotate(-2.11)"><tspan x="0" y="0">W</tspan></text>
    <text class="cls-2" transform="translate(506.86 836.26) rotate(-8.46)"><tspan x="0" y="0">E</tspan></text>
    <text class="cls-2" transform="translate(537.92 831.32) rotate(-13.69)"><tspan x="0" y="0">K</tspan></text>
    <text class="cls-2" transform="translate(573.24 822.02) rotate(-17.98)"><tspan x="0" y="0"> </tspan></text>
    <text class="cls-2" transform="translate(591.11 815.99) rotate(-21)"><tspan x="0" y="0">I</tspan></text>
    <text class="cls-2" transform="translate(610.12 808.41) rotate(-24.02)"><tspan x="0" y="0"> </tspan></text>
    <text class="cls-2" transform="translate(627.62 800.58) rotate(-28.3)"><tspan x="0" y="0">K</tspan></text>
    <text class="cls-2" transform="translate(659.85 782.66) rotate(-33.86)"><tspan x="0" y="0">R</tspan></text>
    <text class="cls-2" transform="translate(689.37 762.25) rotate(-39.12)"><tspan x="0" y="0">Z</tspan></text>
    <text class="cls-2" transform="translate(714.8 740.99) rotate(-44.02)"><tspan x="0" y="0">E</tspan></text>
    <text class="cls-2" transform="translate(737.63 718.94) rotate(-50.36)"><tspan x="0" y="0">W</tspan></text>
    <text class="cls-2" transform="translate(770.12 678.24) rotate(-57.55)"><tspan x="0" y="0">Ó</tspan></text>
    <text class="cls-2" transform="translate(792.55 642.35) rotate(-64.76)"><tspan x="0" y="0">W</tspan></text>
  </g>
  <g>
    <path class="cls-1" d="M105.66,398.03c-9.28,5.57-18.71,14.81-25.67,25.19-6.7,10.03-10.63,18.97-12.27,27.96-.75,4.09-.75,11.76,0,15.57,2.64,13.37,10.44,24.34,21.04,29.57,3.05,1.51,7.05,2.67,9.09,2.67,1.57,0,3.24-.72,3.71-1.6,1.45-2.67-1.95-6.89-10.73-13.21-5-3.59-6.73-5.19-8.15-7.42-1.23-1.95-1.26-2.74-.06-2.52,3.15.63,12.83,5.6,17.11,8.81,1.57,1.16,3.02,2.08,3.21,2.01.82-.25.5-1.73-.79-3.65-2.58-3.87-6.61-7.33-13.81-11.89-7.93-4.97-10.76-9-11.98-17.02-.41-2.77-.19-4.47.6-4.47.31,0,1.6.63,2.93,1.38,8.84,5.19,17.77,14.19,22.46,22.61,1.13,2.04,1.2,2.11,1.86,1.7.72-.5,1.07-2.01,1.1-5.1.03-1.64-.13-2.17-1.13-3.84-1.7-2.89-4.18-6.1-8.52-10.98-6.13-6.92-8.3-10.51-9.34-15.48-.53-2.39-.6-5.35-.16-6.04.47-.72,1.7.13,5.35,3.77,3.77,3.74,6.35,7.3,9.47,12.93,1.16,2.14,2.36,4.31,2.64,4.84l.53.94.63-.79c.57-.69.63-1.13.5-4.09-.13-3.81-.28-4.15-4.66-10.69-3.15-4.69-4.34-7.11-4.91-9.88-.94-4.43.5-9.18,4.34-14.28,2.39-3.18,8.43-9.81,8.93-9.81.57,0,7.05,7.23,9.28,10.35,4.72,6.61,5.41,11.76,2.39,17.8-.35.69-2.33,3.87-4.4,7.08l-3.77,5.82-.16,3.33c-.22,5.06.75,6.16,2.45,2.77,1.7-3.3,4.91-8.52,6.76-10.98,2.2-2.89,6.45-7.27,8.27-8.56,1.86-1.29,2.11-.94,2.04,2.52-.09,5.91-2.8,10.73-11.45,20.35-1.38,1.54-3.81,4.75-5.38,7.08l-2.86,4.25.22,2.96c.19,2.89.53,4.12,1.16,4.12.16,0,.72-.66,1.23-1.51,4.31-6.98,7.93-11.39,12.93-15.66,4.09-3.49,5.91-4.81,9.91-7.2,3.18-1.89,3.46-2.01,3.84-1.48.53.66.31,4.69-.41,7.45-1.48,5.47-4.34,9.22-9.5,12.39-1.51.94-4.18,2.64-5.91,3.77-5.82,3.77-12.52,11.39-11.2,12.71.41.41.31.47,4.81-2.55,3.46-2.36,10.44-5.94,13.87-7.14,3.02-1.07,3.52-.85,2.33,1.16-1.45,2.52-3.4,4.34-8.34,7.86-2.7,1.95-5.94,4.5-7.2,5.69-3.59,3.43-4.78,6.57-3.08,8.24.66.69,1.04.79,2.89.79,5.85,0,13.65-3.96,19.03-9.69,2.86-3.05,4.97-6.13,6.86-10,5.82-11.95,6.45-23.46,1.98-36.45-2.39-6.95-7.8-16.8-13.18-23.97-3.46-4.59-12.08-13.34-16.17-16.36-3.49-2.58-7.99-5.35-9.12-5.6-.6-.13-1.48.25-3.46,1.42Z"/>
    <path class="cls-1" d="M108.74,435.96c-.09.16-.28,7.14-.38,15.54-.5,33.72-.85,39.07-3.99,58.28-1.04,6.23-1.23,7.86-.91,8.24s1.35.47,5.35.47c6.51,0,6.26.25,5.22-5.22-1.57-8.3-3.05-20.1-3.65-29.06-.19-2.67-.44-14.44-.6-26.14-.25-19.41-.41-23.18-1.04-22.11Z"/>
  </g>
  <g>
    <path class="cls-1" d="M812.15,398.03c-9.28,5.57-18.71,14.81-25.67,25.19-6.7,10.03-10.63,18.97-12.27,27.96-.75,4.09-.75,11.76,0,15.57,2.64,13.37,10.44,24.34,21.04,29.57,3.05,1.51,7.05,2.67,9.09,2.67,1.57,0,3.24-.72,3.71-1.6,1.45-2.67-1.95-6.89-10.73-13.21-5-3.59-6.73-5.19-8.15-7.42-1.23-1.95-1.26-2.74-.06-2.52,3.15.63,12.83,5.6,17.11,8.81,1.57,1.16,3.02,2.08,3.21,2.01.82-.25.5-1.73-.79-3.65-2.58-3.87-6.61-7.33-13.81-11.89-7.93-4.97-10.76-9-11.98-17.02-.41-2.77-.19-4.47.6-4.47.31,0,1.6.63,2.93,1.38,8.84,5.19,17.77,14.19,22.46,22.61,1.13,2.04,1.2,2.11,1.86,1.7.72-.5,1.07-2.01,1.1-5.1.03-1.64-.13-2.17-1.13-3.84-1.7-2.89-4.18-6.1-8.52-10.98-6.13-6.92-8.3-10.51-9.34-15.48-.53-2.39-.6-5.35-.16-6.04.47-.72,1.7.13,5.35,3.77,3.77,3.74,6.35,7.3,9.47,12.93,1.16,2.14,2.36,4.31,2.64,4.84l.53.94.63-.79c.57-.69.63-1.13.5-4.09-.13-3.81-.28-4.15-4.66-10.69-3.15-4.69-4.34-7.11-4.91-9.88-.94-4.43.5-9.18,4.34-14.28,2.39-3.18,8.43-9.81,8.93-9.81.57,0,7.05,7.23,9.28,10.35,4.72,6.61,5.41,11.76,2.39,17.8-.35.69-2.33,3.87-4.4,7.08l-3.77,5.82-.16,3.33c-.22,5.06.75,6.16,2.45,2.77,1.7-3.3,4.91-8.52,6.76-10.98,2.2-2.89,6.45-7.27,8.27-8.56,1.86-1.29,2.11-.94,2.04,2.52-.09,5.91-2.8,10.73-11.45,20.35-1.38,1.54-3.81,4.75-5.38,7.08l-2.86,4.25.22,2.96c.19,2.89.53,4.12,1.16,4.12.16,0,.72-.66,1.23-1.51,4.31-6.98,7.93-11.39,12.93-15.66,4.09-3.49,5.91-4.81,9.91-7.2,3.18-1.89,3.46-2.01,3.84-1.48.53.66.31,4.69-.41,7.45-1.48,5.47-4.34,9.22-9.5,12.39-1.51.94-4.18,2.64-5.91,3.77-5.82,3.77-12.52,11.39-11.2,12.71.41.41.31.47,4.81-2.55,3.46-2.36,10.44-5.94,13.87-7.14,3.02-1.07,3.52-.85,2.33,1.16-1.45,2.52-3.4,4.34-8.34,7.86-2.7,1.95-5.94,4.5-7.2,5.69-3.59,3.43-4.78,6.57-3.08,8.24.66.69,1.04.79,2.89.79,5.85,0,13.65-3.96,19.03-9.69,2.86-3.05,4.97-6.13,6.86-10,5.82-11.95,6.45-23.46,1.98-36.45-2.39-6.95-7.8-16.8-13.18-23.97-3.46-4.59-12.08-13.34-16.17-16.36-3.49-2.58-7.99-5.35-9.12-5.6-.6-.13-1.48.25-3.46,1.42Z"/>
    <path class="cls-1" d="M815.23,435.96c-.09.16-.28,7.14-.38,15.54-.5,33.72-.85,39.07-3.99,58.28-1.04,6.23-1.23,7.86-.91,8.24s1.35.47,5.35.47c6.51,0,6.26.25,5.22-5.22-1.57-8.3-3.05-20.1-3.65-29.06-.19-2.67-.44-14.44-.6-26.14-.25-19.41-.41-23.18-1.04-22.11Z"/>
  </g>
  <g>
    <path class="cls-1" d="M600.57,484.03c0,2.84-.09,5.66-.26,8.46-.19,3.02-.47,6.02-.85,8.99-8.22,64.62-61.5,115.18-127.34,119.2v-22.85c45.71-3.35,83.94-33.62,98.9-75.03,2.14-5.93,3.81-12.08,4.95-18.42.7-3.9,1.21-7.87,1.5-11.89h-88.41v-16.93h111.26c.17,2.8.26,5.62.26,8.46Z"/>
    <path class="cls-1" d="M463.66,294.41c-36.53,0-66.15,29.61-66.15,66.15,0,1.19.03,2.36.09,3.53.04.76.09,1.51.16,2.25.42,4.87,1.37,9.58,2.79,14.09.73,2.34,1.6,4.62,2.58,6.83,9.13,20.67,28.55,35.78,51.76,38.86.1.01.2.03.31.04v144.2h16.93v-144.2c.11-.01.21-.03.31-.04,23.21-3.08,42.62-18.19,51.76-38.86.98-2.22,1.84-4.49,2.58-6.83,1.42-4.51,2.37-9.23,2.79-14.09.06-.75.12-1.5.16-2.25.06-1.17.09-2.35.09-3.53,0-36.53-29.62-66.15-66.15-66.15ZM518.28,368.19c-.66,4.78-1.94,9.36-3.74,13.66-.28.66-.56,1.31-.86,1.96h0c-6.8,14.61-19.81,25.73-35.65,29.99-1.92.52-3.89.93-5.89,1.24-2.17.33-4.38.54-6.63.62-.61.02-1.22.03-1.83.03s-1.22,0-1.83-.03c-2.25-.07-4.46-.28-6.63-.62-2.01-.31-3.97-.73-5.89-1.24-15.83-4.26-28.85-15.39-35.65-29.99h0c-.3-.65-.59-1.3-.86-1.96-1.8-4.3-3.08-8.89-3.74-13.66-.35-2.5-.52-5.04-.52-7.63,0-.63.01-1.26.03-1.89.99-29.58,25.29-53.25,55.1-53.25s54.11,23.67,55.1,53.25c.02.63.03,1.25.03,1.89,0,2.59-.18,5.14-.52,7.63Z"/>
    <path class="cls-1" d="M455.2,597.84v22.85c-65.84-4.02-119.12-54.57-127.34-119.2-.38-2.97-.66-5.97-.85-8.99-.17-2.8-.26-5.62-.26-8.46s.09-5.66.26-8.46h111.26v16.93h-88.41c.11,1.55.26,3.1.43,4.64h0c.28,2.45.64,4.87,1.07,7.26,1.14,6.34,2.81,12.49,4.95,18.42,14.96,41.41,53.19,71.68,98.9,75.03Z"/>
    <g>
      <path class="cls-1" d="M455.2,401.76v3.19c-15.13-2.86-27.59-13.27-33.32-27.15-.84-2.02-1.53-4.11-2.07-6.27-.88-3.52-1.34-7.19-1.34-10.98h3.14c0,4.36.66,8.57,1.9,12.52.38,1.23.82,2.44,1.32,3.62,5.28,12.7,16.61,22.25,30.38,25.07Z"/>
      <path class="cls-1" d="M508.86,360.55c0,3.79-.47,7.47-1.34,10.98-1.25.48-2.48.99-3.69,1.54,1.23-3.95,1.9-8.16,1.9-12.52h3.14Z"/>
      <path class="cls-1" d="M507.52,371.54c-.54,2.16-1.23,4.25-2.07,6.27-.97-.38-1.95-.75-2.94-1.11.49-1.18.93-2.39,1.32-3.62,1.21-.54,2.44-1.06,3.69-1.54Z"/>
      <path class="cls-1" d="M505.45,377.8c-5.74,13.89-18.2,24.29-33.32,27.15-1.68.32-3.4.55-5.14.67-1.1.08-2.21.12-3.32.12s-2.22-.04-3.32-.12c-1.74-.13-3.46-.35-5.14-.67v-3.19c.98.2,1.98.37,2.99.5,1.79.23,3.62.35,5.48.35s3.68-.12,5.48-.35c1.01-.13,2.01-.3,2.99-.5,13.78-2.81,25.1-12.37,30.38-25.07.99.36,1.96.73,2.94,1.11Z"/>
    </g>
  </g>
  <path class="cls-3" d="M480.6,368.47c1.88,2.51,3.49,4.59,4.37,6.98.85,2.33,1.2,3.4-.74.98-1.8-2.25-3.49-4.44-5.96-6.52-.18.04-.36.08-.56.12-22.31,4.43-38.56-5.61-35.71-38.05,17.19,5.95,41.53,3.53,39.01,34.02-.09,1.13-.18,1.91-.41,2.46h0ZM474.61,363.6c-5.61-12.08-20.01-16.22-27.16-24.48,7.76,15.13,11.99,14.47,27.16,24.48h0Z"/>
</svg>